# xmcd
#
# Track frame offsets:
#	150
#	16552
#	35286
#	53682
#	70890
#	87199
#	102632
#	120769
#	136805
#	154751
#	174082
#	191971
#
# Disc length: 4140 seconds
# Revision: 0
# Processed by: cddbd v1.5.2PL0 Copyright (c) Steve Scherf et al.
# Submitted via: dBpowerAMP V12.0
#
DISCID=8b102a0c
DTITLE=Carmen Consoli - Stato di Necessità [dBP-LITE-FLAC@]
DYEAR=2000
DGENRE=World
TTITLE0=Bambina Impertinente
TTITLE1=Stato Di Necessità
TTITLE2=Parole Di Burro
TTITLE3=Novembre '99 (L'Isola del Tesoro)
TTITLE4=In Bianco E Nero
TTITLE5=L'ultimo bacio
TTITLE6=Il Sultano (Della Kianca)
TTITLE7=Amado Señor
TTITLE8=L'epilogo
TTITLE9=Orfeo
TTITLE10=Equilibrio Precario
TTITLE11=Non Volermi Male
EXTD=
EXTT0=
EXTT1=
EXTT2=
EXTT3=
EXTT4=
EXTT5=
EXTT6=
EXTT7=
EXTT8=
EXTT9=
EXTT10=
EXTT11=
PLAYORDER=
